<svg width="184" height="60" viewBox="0 0 184 60" fill="none" xmlns="http://www.w3.org/2000/svg">
<rect width="60" height="60" rx="5" fill="#2474EB"/>
<path d="M68.782 36V23.4H79.924V36H77.62V24.804L78.16 25.38H70.546L71.086 24.804V36H68.782ZM81.8749 36L87.5449 23.4H89.8489L95.5369 36H93.0889L88.2109 24.642H89.1469L84.2869 36H81.8749ZM84.4849 33.084L85.1149 31.248H91.9189L92.5489 33.084H84.4849ZM97.4691 36V23.4H102.653C103.769 23.4 104.723 23.58 105.515 23.94C106.319 24.3 106.937 24.816 107.369 25.488C107.801 26.16 108.017 26.958 108.017 27.882C108.017 28.806 107.801 29.604 107.369 30.276C106.937 30.948 106.319 31.464 105.515 31.824C104.723 32.184 103.769 32.364 102.653 32.364H98.7651L99.8091 31.266V36H97.4691ZM99.8091 31.518L98.7651 30.384H102.545C103.577 30.384 104.351 30.168 104.867 29.736C105.395 29.292 105.659 28.674 105.659 27.882C105.659 27.078 105.395 26.46 104.867 26.028C104.351 25.596 103.577 25.38 102.545 25.38H98.7651L99.8091 24.228V31.518ZM110.13 34.02C110.79 34.248 111.372 34.308 111.876 34.2C112.38 34.092 112.83 33.726 113.226 33.102L113.838 32.148L114.072 31.896L118.464 23.4H120.768L115.296 33.57C114.852 34.422 114.324 35.07 113.712 35.514C113.1 35.958 112.44 36.204 111.732 36.252C111.036 36.312 110.31 36.18 109.554 35.856L110.13 34.02ZM114.018 33.912L108.402 23.4H110.904L115.296 32.112L114.018 33.912ZM128.068 36.18C127.108 36.18 126.214 36.024 125.386 35.712C124.57 35.388 123.856 34.938 123.244 34.362C122.644 33.774 122.176 33.084 121.84 32.292C121.504 31.5 121.336 30.636 121.336 29.7C121.336 28.764 121.504 27.9 121.84 27.108C122.176 26.316 122.65 25.632 123.262 25.056C123.874 24.468 124.588 24.018 125.404 23.706C126.22 23.382 127.114 23.22 128.086 23.22C129.118 23.22 130.06 23.4 130.912 23.76C131.764 24.108 132.484 24.63 133.072 25.326L131.56 26.748C131.104 26.256 130.594 25.89 130.03 25.65C129.466 25.398 128.854 25.272 128.194 25.272C127.534 25.272 126.928 25.38 126.376 25.596C125.836 25.812 125.362 26.118 124.954 26.514C124.558 26.91 124.246 27.378 124.018 27.918C123.802 28.458 123.694 29.052 123.694 29.7C123.694 30.348 123.802 30.942 124.018 31.482C124.246 32.022 124.558 32.49 124.954 32.886C125.362 33.282 125.836 33.588 126.376 33.804C126.928 34.02 127.534 34.128 128.194 34.128C128.854 34.128 129.466 34.008 130.03 33.768C130.594 33.516 131.104 33.138 131.56 32.634L133.072 34.074C132.484 34.758 131.764 35.28 130.912 35.64C130.06 36 129.112 36.18 128.068 36.18ZM134.453 31.932V30.06H139.403V31.932H134.453ZM150.487 36L146.221 29.862L148.111 28.692L153.133 36H150.487ZM142.153 36V23.4H144.457V36H142.153ZM143.755 30.69V28.674H148.003V30.69H143.755ZM148.327 29.97L146.185 29.682L150.487 23.4H152.971L148.327 29.97ZM152.908 36L158.578 23.4H160.882L166.57 36H164.122L159.244 24.642H160.18L155.32 36H152.908ZM155.518 33.084L156.148 31.248H162.952L163.582 33.084H155.518ZM167.26 34.758L168.016 33.048C168.556 33.42 169.144 33.708 169.78 33.912C170.428 34.104 171.07 34.206 171.706 34.218C172.342 34.23 172.918 34.158 173.434 34.002C173.962 33.846 174.382 33.612 174.694 33.3C175.006 32.988 175.162 32.598 175.162 32.13C175.162 31.566 174.928 31.146 174.46 30.87C174.004 30.582 173.38 30.438 172.588 30.438H169.654V28.602H172.408C173.116 28.602 173.662 28.458 174.046 28.17C174.442 27.882 174.64 27.492 174.64 27C174.64 26.592 174.508 26.256 174.244 25.992C173.992 25.728 173.644 25.53 173.2 25.398C172.768 25.266 172.276 25.206 171.724 25.218C171.184 25.218 170.62 25.302 170.032 25.47C169.444 25.626 168.886 25.86 168.358 26.172L167.62 24.282C168.412 23.862 169.24 23.568 170.104 23.4C170.98 23.232 171.826 23.184 172.642 23.256C173.458 23.328 174.19 23.514 174.838 23.814C175.498 24.114 176.026 24.51 176.422 25.002C176.818 25.482 177.016 26.052 177.016 26.712C177.016 27.312 176.854 27.846 176.53 28.314C176.218 28.77 175.786 29.124 175.234 29.376C174.682 29.628 174.04 29.754 173.308 29.754L173.398 29.178C174.226 29.178 174.946 29.322 175.558 29.61C176.182 29.886 176.662 30.27 176.998 30.762C177.346 31.254 177.52 31.824 177.52 32.472C177.52 33.084 177.364 33.63 177.052 34.11C176.74 34.578 176.314 34.974 175.774 35.298C175.234 35.61 174.616 35.844 173.92 36C173.224 36.144 172.492 36.198 171.724 36.162C170.956 36.126 170.188 35.994 169.42 35.766C168.664 35.538 167.944 35.202 167.26 34.758Z" fill="black"/>
</svg>
